<svg width="24" height="24" viewBox="0 0 24 24" fill="none" xmlns="http://www.w3.org/2000/svg">
<rect x="4.75" y="7.75" width="14.5" height="11.5" stroke="#050505" stroke-width="1.5"/>
<path fill-rule="evenodd" clip-rule="evenodd" d="M9.75 8.0005C9.75 8.00026 9.75 8 9 8C8.25 8 8.25 7.99971 8.25 7.9994L8.25 7.99706L8.25002 7.99264L8.25015 7.97945C8.25028 7.96877 8.25052 7.95431 8.25097 7.93633C8.25186 7.9004 8.2536 7.85029 8.25693 7.788C8.26359 7.66365 8.27672 7.48955 8.30267 7.28197C8.35407 6.87072 8.45811 6.30904 8.67275 5.73666C8.88623 5.16739 9.2242 4.54725 9.76735 4.06444C10.326 3.56788 11.0656 3.25 12 3.25C12.9344 3.25 13.674 3.56788 14.2326 4.06444C14.7758 4.54725 15.1138 5.16739 15.3272 5.73666C15.5419 6.30904 15.6459 6.87072 15.6973 7.28197C15.7233 7.48955 15.7364 7.66365 15.7431 7.788C15.7464 7.85029 15.7481 7.9004 15.749 7.93633C15.7495 7.95431 15.7497 7.96877 15.7499 7.97945L15.75 7.99264L15.75 7.99706L15.75 7.99871C15.75 7.99902 15.75 8 15 8C14.25 8 14.25 8.00026 14.25 8.0005L14.25 7.9976L14.2495 7.97382C14.2489 7.95116 14.2477 7.91534 14.2452 7.86825C14.2402 7.77385 14.2298 7.63545 14.2089 7.46803C14.1666 7.12928 14.0831 6.69096 13.9228 6.26334C13.7612 5.83261 13.5367 5.45275 13.2361 5.18556C12.951 4.93212 12.5656 4.75 12 4.75C11.4344 4.75 11.049 4.93212 10.7639 5.18556C10.4633 5.45275 10.2388 5.83261 10.0772 6.26334C9.91689 6.69096 9.83343 7.12928 9.79108 7.46803C9.77015 7.63545 9.75984 7.77385 9.75479 7.86825C9.75226 7.91534 9.75106 7.95116 9.7505 7.97382L9.75004 7.9976L9.75 8.0005Z" fill="#050505"/>
</svg>
