<svg width="24" height="24" viewBox="0 0 24 24" fill="none" xmlns="http://www.w3.org/2000/svg">
<path d="M5 4.25C4.0335 4.25 3.25 5.0335 3.25 6V20C3.25 20.9665 4.0335 21.75 5 21.75H19C19.9665 21.75 20.75 20.9665 20.75 20V6C20.75 5.0335 19.9665 4.25 19 4.25H5ZM2.75 6C2.75 4.75736 3.75736 3.75 5 3.75H19C20.2426 3.75 21.25 4.75736 21.25 6V20C21.25 21.2426 20.2426 22.25 19 22.25H5C3.75736 22.25 2.75 21.2426 2.75 20V6Z" stroke="black" stroke-linecap="round" stroke-linejoin="round"/>
<path d="M16 1.75C16.1381 1.75 16.25 1.86193 16.25 2V6C16.25 6.13807 16.1381 6.25 16 6.25C15.8619 6.25 15.75 6.13807 15.75 6V2C15.75 1.86193 15.8619 1.75 16 1.75Z" stroke="black" stroke-linecap="round" stroke-linejoin="round"/>
<path d="M8 1.75C8.13807 1.75 8.25 1.86193 8.25 2V6C8.25 6.13807 8.13807 6.25 8 6.25C7.86193 6.25 7.75 6.13807 7.75 6V2C7.75 1.86193 7.86193 1.75 8 1.75Z" stroke="black" stroke-linecap="round" stroke-linejoin="round"/>
<path d="M2.75 10C2.75 9.86193 2.86193 9.75 3 9.75H21C21.1381 9.75 21.25 9.86193 21.25 10C21.25 10.1381 21.1381 10.25 21 10.25H3C2.86193 10.25 2.75 10.1381 2.75 10Z" stroke="black" stroke-linecap="round" stroke-linejoin="round"/>
</svg>
