<svg width="24" height="24" viewBox="0 0 24 24" fill="none" xmlns="http://www.w3.org/2000/svg">
<path d="M4 5.25C3.0335 5.25 2.25 6.0335 2.25 7V17C2.25 17.9665 3.0335 18.75 4 18.75H20C20.9665 18.75 21.75 17.9665 21.75 17V7C21.75 6.0335 20.9665 5.25 20 5.25H4ZM1.75 7C1.75 5.75736 2.75736 4.75 4 4.75H20C21.2426 4.75 22.25 5.75736 22.25 7V17C22.25 18.2426 21.2426 19.25 20 19.25H4C2.75736 19.25 1.75 18.2426 1.75 17V7Z" stroke="#050505" stroke-linecap="round" stroke-linejoin="round"/>
<path d="M1.75 10C1.75 9.86193 1.86193 9.75 2 9.75H22C22.1381 9.75 22.25 9.86193 22.25 10C22.25 10.1381 22.1381 10.25 22 10.25H2C1.86193 10.25 1.75 10.1381 1.75 10Z" stroke="#050505" stroke-linecap="round" stroke-linejoin="round"/>
</svg>
