<svg width="24" height="24" viewBox="0 0 24 24" fill="none" xmlns="http://www.w3.org/2000/svg">
<path d="M12 2.25C6.61522 2.25 2.25 6.61522 2.25 12C2.25 17.3848 6.61522 21.75 12 21.75C17.3848 21.75 21.75 17.3848 21.75 12C21.75 6.61522 17.3848 2.25 12 2.25ZM1.75 12C1.75 6.33908 6.33908 1.75 12 1.75C17.6609 1.75 22.25 6.33908 22.25 12C22.25 17.6609 17.6609 22.25 12 22.25C6.33908 22.25 1.75 17.6609 1.75 12Z" stroke="#050505" stroke-linecap="round" stroke-linejoin="round"/>
<path d="M12.25 11.75V16.25H11.75V11.75H12.25Z" stroke="#050505" stroke-linecap="square" stroke-linejoin="round"/>
<path d="M11.75 7.75H12.26V8.25H11.75V7.75Z" stroke="#050505" stroke-linecap="square" stroke-linejoin="round"/>
</svg>
