<svg width="24" height="24" viewBox="0 0 24 24" fill="none" xmlns="http://www.w3.org/2000/svg">
<path d="M3.75 9.25C3.47386 9.25 3.25 9.47386 3.25 9.75V19C3.25 19.4641 3.43437 19.9092 3.76256 20.2374L4.11612 19.8839L3.76256 20.2374C4.09075 20.5656 4.53587 20.75 5 20.75H19C19.4641 20.75 19.9092 20.5656 20.2374 20.2374C20.5656 19.9092 20.75 19.4641 20.75 19V9.75C20.75 9.47386 20.5261 9.25 20.25 9.25H3.75ZM3.40901 20.591L3.05546 20.9445L3.40901 20.591C2.98705 20.169 2.75 19.5967 2.75 19V9C2.75 8.86193 2.86193 8.75 3 8.75H21C21.1381 8.75 21.25 8.86193 21.25 9V19C21.25 19.5967 21.0129 20.169 20.591 20.591C20.169 21.0129 19.5967 21.25 19 21.25H5C4.40326 21.25 3.83097 21.0129 3.40901 20.591Z" stroke="#050505" stroke-linecap="round" stroke-linejoin="round"/>
<path d="M5.67387 4.21136L5.67393 4.21125C5.82003 3.92189 6.04364 3.67879 6.31983 3.50907C6.59636 3.33914 6.9147 3.24945 7.23927 3.25005L7.23902 3.25005L7.23853 3.75005L7.23952 3.25005L7.24001 3.25005L7.2405 3.25005L16.3269 3.25007C16.2849 3.17749 16.2606 3.09335 16.26 3.00353L16.26 3.00005L16.2583 2.75005H7.24109H7.24083C7.24082 2.75005 7.24081 2.75005 7.2408 2.75005C7.24077 2.75005 7.24074 2.75005 7.24071 2.75005L7.2407 2.75005L7.24054 2.75005L7.24051 2.75005L7.24038 2.75005C7.24028 2.75005 7.24018 2.75005 7.24008 2.75005C7.24004 2.75005 7.24 2.75005 7.23996 2.75005C7.23994 2.75005 7.23992 2.75005 7.23991 2.75005L5.67387 4.21136ZM5.67387 4.21136L5.67326 4.21257L5.67326 4.21257L5.67257 4.21394L3.22362 9.11185C3.16187 9.23535 3.0117 9.2854 2.88821 9.22366C2.76471 9.16191 2.71466 9.01174 2.7764 8.88825L5.22675 3.98755C5.22686 3.98733 5.22697 3.98711 5.22708 3.98689C5.41492 3.61442 5.70262 3.3015 6.05805 3.08308C6.41344 2.86468 6.82255 2.74938 7.23968 2.75005L5.67387 4.21136ZM7.74071 2.25005H16.2548H7.74071ZM7.74071 2.25005C7.74071 2.25036 7.74071 2.25067 7.74071 2.25098C7.74019 2.52558 7.51842 2.74806 7.2444 2.75004C7.24434 2.75004 7.24428 2.75004 7.24421 2.75004C7.24359 2.75004 7.24296 2.75004 7.24233 2.75005C7.24222 2.75005 7.24211 2.75005 7.242 2.75005L7.74071 2.25005ZM19.2298 3.76257L18.7833 3.98755C18.5946 3.61308 18.305 3.29878 17.9472 3.08012C17.734 2.94984 17.5017 2.85661 17.26 2.80313V3.00005C17.26 3.10995 17.2245 3.21159 17.1644 3.29413C17.3479 3.33613 17.5243 3.40767 17.6865 3.50676C17.9641 3.67645 18.189 3.92019 18.3358 4.2106M19.2298 3.76257L16.76 3.50005L16.76 3.75007M19.2298 3.76257L18.7833 3.98756L18.7838 3.98861L19.2298 3.76257ZM18.3358 4.2106L17.8897 4.43607L18.3356 4.21033L18.3358 4.2106ZM18.3358 4.2106L18.3368 4.21263L18.3378 4.21465L20.7762 9.11149C20.8378 9.23508 20.9879 9.28538 21.1114 9.22384C21.235 9.16229 21.2853 9.01221 21.2238 8.88861L18.7849 3.99073L19.2314 3.76573L21.6714 8.66573C21.856 9.03652 21.7051 9.48678 21.3343 9.67142C20.9635 9.85605 20.5133 9.70515 20.3286 9.33436L17.8902 4.43753L17.8895 4.43614C17.7847 4.22871 17.6241 4.05461 17.4257 3.9334C17.227 3.81192 16.9982 3.74841 16.7652 3.75003L16.76 3.75007M16.76 3.75007L7.24001 3.75005L16.7583 3.50005L16.76 3.75007Z" stroke="#050505" stroke-linecap="round" stroke-linejoin="round"/>
<path d="M12 2.75C12.1381 2.75 12.25 2.86193 12.25 3V9C12.25 9.13807 12.1381 9.25 12 9.25C11.8619 9.25 11.75 9.13807 11.75 9V3C11.75 2.86193 11.8619 2.75 12 2.75Z" stroke="#050505" stroke-linecap="round" stroke-linejoin="round"/>
</svg>
