<svg width="24" height="24" viewBox="0 0 24 24" fill="none" xmlns="http://www.w3.org/2000/svg">
<path d="M14 17H15" stroke="black" stroke-width="1.2" stroke-linecap="round" stroke-linejoin="round"/>
<mask id="path-2-inside-1_329_9158" fill="white">
<path fill-rule="evenodd" clip-rule="evenodd" d="M2 4.25C1.58579 4.25 1.25 4.58579 1.25 5V17C1.25 17.4142 1.58579 17.75 2 17.75H4.25947C4.38713 19.4281 5.78919 20.75 7.5 20.75C9.21081 20.75 10.6129 19.4281 10.7405 17.75H14C14.09 17.75 14.1764 17.7341 14.2564 17.705C14.3622 19.4044 15.7739 20.75 17.5 20.75C19.2108 20.75 20.6129 19.4281 20.7405 17.75H22C22.4142 17.75 22.75 17.4142 22.75 17V13.6606C22.7505 13.0366 22.628 12.4187 22.3896 11.8421C22.1513 11.2654 21.8013 10.7411 21.3603 10.2997L19.5303 8.46967C19.3897 8.32902 19.1989 8.25 19 8.25H14.75V5C14.75 4.58579 14.4142 4.25 14 4.25H2ZM20.5009 16.25H21.25V13.66C21.2503 13.2331 21.1666 12.8097 21.0034 12.4151C20.8404 12.0207 20.6012 11.6623 20.2997 11.3603L18.6893 9.75H14.75V15.7672C15.3257 14.8555 16.3421 14.25 17.5 14.25C18.852 14.25 20.0111 15.0755 20.5009 16.25ZM7.5 14.25C6.14802 14.25 4.98886 15.0755 4.49908 16.25H2.75V5.75H13.25V9V16.25H10.5009C10.0111 15.0755 8.85198 14.25 7.5 14.25ZM7.5 15.75C6.5335 15.75 5.75 16.5335 5.75 17.5C5.75 18.4665 6.5335 19.25 7.5 19.25C8.4665 19.25 9.25 18.4665 9.25 17.5C9.25 16.5335 8.4665 15.75 7.5 15.75ZM15.75 17.5C15.75 16.5335 16.5335 15.75 17.5 15.75C18.4665 15.75 19.25 16.5335 19.25 17.5C19.25 18.4665 18.4665 19.25 17.5 19.25C16.5335 19.25 15.75 18.4665 15.75 17.5Z"/>
</mask>
<path d="M4.25947 17.75L5.25659 17.6741C5.21693 17.1528 4.78233 16.75 4.25947 16.75V17.75ZM10.7405 17.75V16.75C10.2177 16.75 9.78307 17.1528 9.74341 17.6741L10.7405 17.75ZM14.2564 17.705L15.2544 17.6429C15.2348 17.3283 15.068 17.0413 14.8043 16.8685C14.5406 16.6958 14.2108 16.6575 13.9146 16.7653L14.2564 17.705ZM20.7405 17.75V16.75C20.2177 16.75 19.7831 17.1528 19.7434 17.6741L20.7405 17.75ZM22.75 13.6606L21.75 13.6598V13.6606H22.75ZM21.3603 10.2997L22.0678 9.59296L22.0674 9.59256L21.3603 10.2997ZM19.5303 8.46967L18.8232 9.17678V9.17678L19.5303 8.46967ZM14.75 8.25H13.75C13.75 8.80228 14.1977 9.25 14.75 9.25V8.25ZM20.5009 16.25L19.578 16.6349C19.7333 17.0074 20.0973 17.25 20.5009 17.25V16.25ZM21.25 16.25V17.25C21.8023 17.25 22.25 16.8023 22.25 16.25H21.25ZM21.25 13.66L20.25 13.6592V13.66H21.25ZM21.0034 12.4151L21.9276 12.0331L21.9276 12.0331L21.0034 12.4151ZM20.2997 11.3603L21.0073 10.6537L21.0068 10.6532L20.2997 11.3603ZM18.6893 9.75L19.3964 9.04289C19.2089 8.85536 18.9546 8.75 18.6893 8.75V9.75ZM14.75 9.75V8.75C14.1977 8.75 13.75 9.19772 13.75 9.75H14.75ZM14.75 15.7672H13.75C13.75 16.2124 14.0444 16.604 14.4721 16.7278C14.8998 16.8515 15.3578 16.6775 15.5955 16.3011L14.75 15.7672ZM4.49908 16.25V17.25C4.90267 17.25 5.2667 17.0074 5.42204 16.6349L4.49908 16.25ZM2.75 16.25H1.75C1.75 16.8023 2.19772 17.25 2.75 17.25V16.25ZM2.75 5.75V4.75C2.19772 4.75 1.75 5.19772 1.75 5.75H2.75ZM13.25 5.75H14.25C14.25 5.19772 13.8023 4.75 13.25 4.75V5.75ZM13.25 16.25V17.25C13.8023 17.25 14.25 16.8023 14.25 16.25H13.25ZM10.5009 16.25L9.57796 16.6349C9.7333 17.0074 10.0973 17.25 10.5009 17.25V16.25ZM2.25 5C2.25 5.13807 2.13807 5.25 2 5.25V3.25C1.0335 3.25 0.25 4.0335 0.25 5H2.25ZM2.25 17V5H0.25V17H2.25ZM2 16.75C2.13807 16.75 2.25 16.8619 2.25 17H0.25C0.25 17.9665 1.0335 18.75 2 18.75V16.75ZM4.25947 16.75H2V18.75H4.25947V16.75ZM7.5 19.75C6.31605 19.75 5.34489 18.8349 5.25659 17.6741L3.26235 17.8259C3.42937 20.0213 5.26233 21.75 7.5 21.75V19.75ZM9.74341 17.6741C9.65511 18.8349 8.68395 19.75 7.5 19.75V21.75C9.73767 21.75 11.5706 20.0213 11.7376 17.8259L9.74341 17.6741ZM14 16.75H10.7405V18.75H14V16.75ZM13.9146 16.7653C13.9425 16.7551 13.9718 16.75 14 16.75V18.75C14.2083 18.75 14.4102 18.7132 14.5982 18.6448L13.9146 16.7653ZM17.5 19.75C16.3054 19.75 15.3276 18.8185 15.2544 17.6429L13.2583 17.7672C13.3967 19.9904 15.2425 21.75 17.5 21.75V19.75ZM19.7434 17.6741C19.6551 18.8349 18.6839 19.75 17.5 19.75V21.75C19.7377 21.75 21.5706 20.0213 21.7376 17.8259L19.7434 17.6741ZM22 16.75H20.7405V18.75H22V16.75ZM21.75 17C21.75 16.8619 21.8619 16.75 22 16.75V18.75C22.9665 18.75 23.75 17.9665 23.75 17H21.75ZM21.75 13.6606V17H23.75V13.6606H21.75ZM21.4655 12.2241C21.6537 12.6793 21.7504 13.1672 21.75 13.6598L23.75 13.6614C23.7506 12.9061 23.6024 12.158 23.3138 11.46L21.4655 12.2241ZM20.6528 11.0064C21.001 11.355 21.2773 11.769 21.4655 12.2241L23.3138 11.46C23.0252 10.7619 22.6016 10.1273 22.0678 9.59296L20.6528 11.0064ZM18.8232 9.17678L20.6532 11.0068L22.0674 9.59256L20.2374 7.76256L18.8232 9.17678ZM19 9.25C18.9337 9.25 18.8701 9.22366 18.8232 9.17678L20.2374 7.76256C19.9092 7.43437 19.4641 7.25 19 7.25V9.25ZM14.75 9.25H19V7.25H14.75V9.25ZM13.75 5V8.25H15.75V5H13.75ZM14 5.25C13.8619 5.25 13.75 5.13807 13.75 5H15.75C15.75 4.0335 14.9665 3.25 14 3.25V5.25ZM2 5.25H14V3.25H2V5.25ZM20.5009 17.25H21.25V15.25H20.5009V17.25ZM22.25 16.25V13.66H20.25V16.25H22.25ZM22.25 13.6608C22.2504 13.1027 22.1409 12.5492 21.9276 12.0331L20.0793 12.7972C20.1922 13.0702 20.2502 13.3635 20.25 13.6592L22.25 13.6608ZM21.9276 12.0331C21.7143 11.5173 21.4016 11.0486 21.0073 10.6537L19.5921 12.067C19.8009 12.276 19.9664 12.5242 20.0793 12.7972L21.9276 12.0331ZM21.0068 10.6532L19.3964 9.04289L17.9822 10.4571L19.5926 12.0674L21.0068 10.6532ZM18.6893 8.75H14.75V10.75H18.6893V8.75ZM13.75 9.75V15.7672H15.75V9.75H13.75ZM15.5955 16.3011C15.9957 15.6673 16.6995 15.25 17.5 15.25V13.25C15.9848 13.25 14.6556 14.0437 13.9045 15.2332L15.5955 16.3011ZM17.5 15.25C18.4344 15.25 19.2381 15.8199 19.578 16.6349L21.4239 15.8651C20.7842 14.3312 19.2695 13.25 17.5 13.25V15.25ZM5.42204 16.6349C5.76193 15.8199 6.56559 15.25 7.5 15.25V13.25C5.73046 13.25 4.21579 14.3312 3.57612 15.8651L5.42204 16.6349ZM2.75 17.25H4.49908V15.25H2.75V17.25ZM1.75 5.75V16.25H3.75V5.75H1.75ZM13.25 4.75H2.75V6.75H13.25V4.75ZM14.25 9V5.75H12.25V9H14.25ZM14.25 16.25V9H12.25V16.25H14.25ZM10.5009 17.25H13.25V15.25H10.5009V17.25ZM7.5 15.25C8.43441 15.25 9.23807 15.8199 9.57796 16.6349L11.4239 15.8651C10.7842 14.3312 9.26954 13.25 7.5 13.25V15.25ZM6.75 17.5C6.75 17.0858 7.08579 16.75 7.5 16.75V14.75C5.98122 14.75 4.75 15.9812 4.75 17.5H6.75ZM7.5 18.25C7.08579 18.25 6.75 17.9142 6.75 17.5H4.75C4.75 19.0188 5.98122 20.25 7.5 20.25V18.25ZM8.25 17.5C8.25 17.9142 7.91421 18.25 7.5 18.25V20.25C9.01878 20.25 10.25 19.0188 10.25 17.5H8.25ZM7.5 16.75C7.91421 16.75 8.25 17.0858 8.25 17.5H10.25C10.25 15.9812 9.01878 14.75 7.5 14.75V16.75ZM17.5 14.75C15.9812 14.75 14.75 15.9812 14.75 17.5H16.75C16.75 17.0858 17.0858 16.75 17.5 16.75V14.75ZM20.25 17.5C20.25 15.9812 19.0188 14.75 17.5 14.75V16.75C17.9142 16.75 18.25 17.0858 18.25 17.5H20.25ZM17.5 20.25C19.0188 20.25 20.25 19.0188 20.25 17.5H18.25C18.25 17.9142 17.9142 18.25 17.5 18.25V20.25ZM14.75 17.5C14.75 19.0188 15.9812 20.25 17.5 20.25V18.25C17.0858 18.25 16.75 17.9142 16.75 17.5H14.75Z" fill="#050505" mask="url(#path-2-inside-1_329_9158)"/>
</svg>
