<svg width="24" height="24" viewBox="0 0 24 24" fill="none" xmlns="http://www.w3.org/2000/svg">
<path d="M4.7071 9.35354L9.35354 14L8.99999 14.3535L3.64644 8.99999L8.99999 3.64644L9.35355 3.99999L4.7071 8.64644L4.35354 8.99999L4.7071 9.35354Z" stroke="#050505" stroke-linecap="square"/>
<path d="M4.25 8.75H14.5C15.2551 8.75 16.0028 8.89873 16.7004 9.18769C17.3981 9.47666 18.0319 9.9002 18.5659 10.4341L18.9194 10.0806L18.5659 10.4341C19.0998 10.9681 19.5233 11.6019 19.8123 12.2996C20.1013 12.9972 20.25 13.7449 20.25 14.5C20.25 15.2551 20.1013 16.0028 19.8123 16.7004C19.5233 17.3981 19.0998 18.0319 18.5659 18.5659C18.0319 19.0998 17.3981 19.5233 16.7004 19.8123C16.0028 20.1013 15.2551 20.25 14.5 20.25H10.75V19.75H14.5C15.1894 19.75 15.8721 19.6142 16.5091 19.3504C17.146 19.0865 17.7248 18.6998 18.2123 18.2123C18.6998 17.7248 19.0865 17.146 19.3504 16.5091C19.6142 15.8721 19.75 15.1894 19.75 14.5C19.75 13.8106 19.6142 13.1279 19.3504 12.4909C19.0865 11.854 18.6998 11.2752 18.2123 10.7877C17.7248 10.3002 17.146 9.91347 16.5091 9.64963C15.8721 9.3858 15.1894 9.25 14.5 9.25H4.25V8.75Z" stroke="#050505" stroke-linecap="square"/>
</svg>
