<svg width="16" height="16" fill="none" xmlns="http://www.w3.org/2000/svg"><mask id="a" fill="#fff"><path fill-rule="evenodd" clip-rule="evenodd" d="M2.667 3.833a.833.833 0 0 0-.834.833v6.667c0 .46.373.833.834.833h10.666c.46 0 .834-.373.834-.833V4.666a.833.833 0 0 0-.834-.833H2.667Zm-1.834.833c0-1.012.821-1.833 1.834-1.833h10.666c1.013 0 1.834.82 1.834 1.833v6.667c0 1.012-.821 1.833-1.834 1.833H2.667a1.833 1.833 0 0 1-1.834-1.833V4.666Z"/></mask><path fill-rule="evenodd" clip-rule="evenodd" d="M2.667 3.833a.833.833 0 0 0-.834.833v6.667c0 .46.373.833.834.833h10.666c.46 0 .834-.373.834-.833V4.666a.833.833 0 0 0-.834-.833H2.667Zm-1.834.833c0-1.012.821-1.833 1.834-1.833h10.666c1.013 0 1.834.82 1.834 1.833v6.667c0 1.012-.821 1.833-1.834 1.833H2.667a1.833 1.833 0 0 1-1.834-1.833V4.666Z" fill="#898A8D"/><path d="M2.833 4.666a.167.167 0 0 1-.166.167v-2c-1.013 0-1.834.82-1.834 1.833h2Zm0 6.667V4.666h-2v6.667h2Zm-.166-.167c.092 0 .166.075.166.167h-2c0 1.012.821 1.833 1.834 1.833v-2Zm10.666 0H2.667v2h10.666v-2Zm-.166.167c0-.092.074-.167.166-.167v2c1.013 0 1.834-.82 1.834-1.833h-2Zm0-6.667v6.667h2V4.666h-2Zm.166.167a.167.167 0 0 1-.166-.167h2c0-1.012-.821-1.833-1.834-1.833v2Zm-10.666 0h10.666v-2H2.667v2Zm0-3A2.833 2.833 0 0 0-.167 4.666h2c0-.46.373-.833.834-.833v-2Zm10.666 0H2.667v2h10.666v-2Zm2.834 2.833a2.833 2.833 0 0 0-2.834-2.833v2c.46 0 .834.373.834.833h2Zm0 6.667V4.666h-2v6.667h2Zm-2.834 2.833a2.833 2.833 0 0 0 2.834-2.833h-2c0 .46-.373.833-.834.833v2Zm-10.666 0h10.666v-2H2.667v2Zm-2.834-2.833a2.833 2.833 0 0 0 2.834 2.833v-2a.833.833 0 0 1-.834-.833h-2Zm0-6.667v6.667h2V4.666h-2Z" fill="#050505" mask="url(#a)"/><mask id="b" fill="#fff"><path fill-rule="evenodd" clip-rule="evenodd" d="M.833 6.667a.5.5 0 0 1 .5-.5h13.334a.5.5 0 0 1 0 1H1.333a.5.5 0 0 1-.5-.5Z"/></mask><path fill-rule="evenodd" clip-rule="evenodd" d="M.833 6.667a.5.5 0 0 1 .5-.5h13.334a.5.5 0 0 1 0 1H1.333a.5.5 0 0 1-.5-.5Z" fill="#898A8D"/><path d="M1.333 5.167a1.5 1.5 0 0 0-1.5 1.5h2a.5.5 0 0 1-.5.5v-2Zm13.334 0H1.333v2h13.334v-2Zm1.5 1.5a1.5 1.5 0 0 0-1.5-1.5v2a.5.5 0 0 1-.5-.5h2Zm-1.5 1.5a1.5 1.5 0 0 0 1.5-1.5h-2a.5.5 0 0 1 .5-.5v2Zm-13.334 0h13.334v-2H1.333v2Zm-1.5-1.5a1.5 1.5 0 0 0 1.5 1.5v-2a.5.5 0 0 1 .5.5h-2Z" fill="#050505" mask="url(#b)"/></svg>