<svg width="34" height="24" viewBox="0 0 34 24" fill="none" xmlns="http://www.w3.org/2000/svg">
<path d="M22.594 7.66968H20.1052C19.9353 7.66968 19.7905 7.79339 19.7639 7.96149L18.7575 14.3425C18.7375 14.4684 18.835 14.5819 18.962 14.5819H20.2391C20.3577 14.5819 20.4593 14.4953 20.4778 14.3774L20.7634 12.5687C20.7896 12.4002 20.9348 12.2765 21.1047 12.2765H21.8921C23.5317 12.2765 24.4773 11.4833 24.7248 9.91141C24.8365 9.22371 24.7291 8.68339 24.4071 8.30497C24.0538 7.88945 23.4269 7.66968 22.594 7.66968ZM22.8811 10.0002C22.7454 10.8931 22.0631 10.8931 21.4031 10.8931H21.028L21.2918 9.22553C21.3074 9.12475 21.394 9.05052 21.4963 9.05052H21.6684C22.1174 9.05052 22.5416 9.05052 22.7607 9.30667C22.8913 9.4595 22.9309 9.68654 22.8811 10.0002Z" fill="#179BD7"/>
<path d="M30.033 9.97565H28.8421C28.7399 9.97565 28.6529 10.0499 28.6376 10.1507L28.5849 10.484L28.5012 10.3632C28.2432 9.98875 27.6683 9.86359 27.0942 9.86359C25.7773 9.86359 24.653 10.8609 24.434 12.26C24.3205 12.9578 24.4816 13.6251 24.8775 14.0905C25.2414 14.5184 25.7602 14.6967 26.3784 14.6967C27.4395 14.6967 28.0278 14.0145 28.0278 14.0145L27.9747 14.3456C27.9547 14.4722 28.0522 14.5857 28.1799 14.5857H29.2529C29.4228 14.5857 29.5677 14.462 29.5942 14.2936L30.2386 10.2151C30.2583 10.0895 30.1607 9.97565 30.033 9.97565ZM28.372 12.2949C28.2578 12.9757 27.7167 13.4327 27.0276 13.4327C26.6823 13.4327 26.405 13.3217 26.2274 13.1114C26.0513 12.9025 25.9851 12.6053 26.0404 12.2741C26.1485 11.5992 26.6972 11.1273 27.3758 11.1273C27.7142 11.1273 27.9892 11.2397 28.1704 11.4518C28.3527 11.6661 28.4248 11.9652 28.372 12.2949Z" fill="#179BD7"/>
<path d="M31.439 7.84506L30.4177 14.3428C30.3976 14.4687 30.4952 14.5823 30.6221 14.5823H31.6489C31.8196 14.5823 31.9644 14.4585 31.9906 14.2901L32.9978 7.90946C33.0178 7.78357 32.9203 7.66968 32.7933 7.66968H31.6435C31.542 7.67004 31.4546 7.74427 31.439 7.84506Z" fill="#179BD7"/>
<path d="M4.84499 7.66968H2.35657C2.18628 7.66968 2.04146 7.79339 2.0149 7.96149L1.00847 14.3425C0.98846 14.4684 1.08597 14.5819 1.21369 14.5819H2.40168C2.57197 14.5819 2.71679 14.4582 2.74335 14.2897L3.01478 12.5687C3.04098 12.4002 3.18616 12.2765 3.35608 12.2765H4.14384C5.78302 12.2765 6.72905 11.4833 6.97611 9.91141C7.08745 9.22371 6.98084 8.68339 6.65882 8.30497C6.30515 7.88945 5.67786 7.66968 4.84499 7.66968ZM5.13207 10.0002C4.99599 10.8931 4.31376 10.8931 3.65408 10.8931H3.27858L3.54202 9.22553C3.55766 9.12475 3.64499 9.05052 3.74687 9.05052H3.91897C4.36834 9.05052 4.79223 9.05052 5.01127 9.30667C5.1419 9.4595 5.18192 9.68654 5.13207 10.0002Z" fill="#253B80"/>
<path d="M12.2836 9.97565H11.092C10.9905 9.97565 10.9028 10.0499 10.8871 10.1507L10.8344 10.484L10.751 10.3632C10.4931 9.98875 9.91781 9.86359 9.34364 9.86359C8.02684 9.86359 6.90215 10.8609 6.68311 12.26C6.56922 12.9578 6.73114 13.6251 7.12701 14.0905C7.49014 14.5184 8.00973 14.6967 8.62793 14.6967C9.68894 14.6967 10.2773 14.0145 10.2773 14.0145L10.2242 14.3456C10.2042 14.4722 10.3017 14.5857 10.4287 14.5857H11.502C11.6727 14.5857 11.8168 14.462 11.8437 14.2936L12.4877 10.2151C12.5081 10.0895 12.411 9.97565 12.2836 9.97565ZM10.6226 12.2949C10.5076 12.9757 9.96729 13.4327 9.27814 13.4327C8.93211 13.4327 8.65558 13.3217 8.47802 13.1114C8.30191 12.9025 8.23496 12.6053 8.291 12.2741C8.39833 11.5992 8.94776 11.1273 9.62636 11.1273C9.96474 11.1273 10.2398 11.2397 10.421 11.4518C10.6026 11.6661 10.6746 11.9652 10.6226 12.2949Z" fill="#253B80"/>
<path d="M18.6291 9.96948H17.4317C17.3174 9.96948 17.2101 10.0262 17.1453 10.1212L15.4938 12.554L14.7937 10.2162C14.7497 10.0699 14.6147 9.96948 14.4619 9.96948H13.2851C13.1421 9.96948 13.0428 10.1092 13.0883 10.2438L14.4073 14.1146L13.1672 15.8651C13.0697 16.003 13.168 16.1925 13.3364 16.1925H14.5324C14.646 16.1925 14.7522 16.1372 14.8166 16.0441L18.7994 10.2951C18.8947 10.1576 18.7969 9.96948 18.6291 9.96948Z" fill="#253B80"/>
</svg>
