<svg width="95" height="36" viewBox="0 0 95 36" fill="none" xmlns="http://www.w3.org/2000/svg">
<g clip-path="url(#clip0_48_1547)">
<path d="M58.5969 35.9996H31.8462L38.1046 0.110352H64.8554L62.7508 12.0734H50.0677L49.8462 13.1257H62.5846L60.9231 22.5411H48.24L48.0185 23.6488H60.7015L58.5969 35.9996Z" fill="#1E2DA0"/>
<path d="M66.1842 0.110352H80.8611C91.218 0.110352 95.7042 5.15035 93.9873 15.0088L92.7688 21.9319C92.2149 25.0888 91.3842 27.6365 90.1657 29.7965C87.8396 33.9504 83.7411 35.9996 76.2642 35.9996H59.9257L66.1842 0.110352ZM78.535 11.6304L76.4303 24.0365H76.4857C77.538 24.0365 77.8703 23.7596 78.2026 21.7657L79.5873 13.735C79.9196 11.9627 79.8088 11.6304 78.6457 11.6304H78.535Z" fill="#1E2DA0"/>
<path d="M35.5015 7.08881C35.1138 4.65189 33.7846 2.76881 31.2369 1.55035C30.1292 0.996506 28.7446 0.608813 27.0831 0.387275C25.8646 0.221121 24.4246 0.110352 22.9292 0.110352H6.53538L0.276917 35.9996H14.6769L16.56 25.3104C17.4461 25.3104 17.7785 25.4211 17.6123 26.9165C17.5569 27.138 17.5569 27.415 17.5015 27.7473L16.4492 33.618L16.0615 35.9996H17.0585H30.4615L30.7938 34.1719L31.9569 27.6365L32.0677 27.138C32.8985 22.375 32.2892 20.3257 28.4677 19.495C30.9046 18.9411 32.7877 17.8334 34.0615 15.618C34.6708 14.5104 35.1692 13.1257 35.4461 11.4642C35.6677 9.85804 35.7231 8.36266 35.5015 7.08881ZM20.5477 13.2919C20.3815 14.1227 20.1046 14.6765 19.7169 14.9534C19.4954 15.1196 19.2185 15.2304 18.9415 15.2304H18.2769L18.9415 11.4642H19.5508C19.8831 11.4642 20.1046 11.575 20.2708 11.7411C20.6031 12.018 20.7138 12.6273 20.5477 13.2919Z" fill="#1E2DA0"/>
</g>
<defs>
<clipPath id="clip0_48_1547">
<rect width="94.7077" height="36" fill="white"/>
</clipPath>
</defs>
</svg>
