<svg width="29" height="24" viewBox="0 0 29 24" fill="none" xmlns="http://www.w3.org/2000/svg">
<rect x="4.75" y="7.75" width="14.5" height="11.5" stroke="#050505" stroke-width="1.5"/>
<path fill-rule="evenodd" clip-rule="evenodd" d="M9.75 8.0005C9.75 8.00026 9.75 8 9 8C8.25 8 8.25 7.99971 8.25 7.9994L8.25 7.99706L8.25002 7.99264L8.25015 7.97945C8.25028 7.96877 8.25052 7.95431 8.25097 7.93633C8.25186 7.9004 8.2536 7.85029 8.25693 7.788C8.26359 7.66365 8.27672 7.48955 8.30267 7.28197C8.35407 6.87072 8.45811 6.30904 8.67275 5.73666C8.88623 5.16739 9.2242 4.54725 9.76735 4.06444C10.326 3.56788 11.0656 3.25 12 3.25C12.9344 3.25 13.674 3.56788 14.2326 4.06444C14.7758 4.54725 15.1138 5.16739 15.3272 5.73666C15.5419 6.30904 15.6459 6.87072 15.6973 7.28197C15.7233 7.48955 15.7364 7.66365 15.7431 7.788C15.7464 7.85029 15.7481 7.9004 15.749 7.93633C15.7495 7.95431 15.7497 7.96877 15.7499 7.97945L15.75 7.99264L15.75 7.99706L15.75 7.99871C15.75 7.99902 15.75 8 15 8C14.25 8 14.25 8.00026 14.25 8.0005L14.25 7.9976L14.2495 7.97382C14.2489 7.95116 14.2477 7.91534 14.2452 7.86825C14.2402 7.77385 14.2298 7.63545 14.2089 7.46803C14.1666 7.12928 14.0831 6.69096 13.9228 6.26334C13.7612 5.83261 13.5367 5.45275 13.2361 5.18556C12.951 4.93212 12.5656 4.75 12 4.75C11.4344 4.75 11.049 4.93212 10.7639 5.18556C10.4633 5.45275 10.2388 5.83261 10.0772 6.26334C9.91689 6.69096 9.83343 7.12928 9.79108 7.46803C9.77015 7.63545 9.75984 7.77385 9.75479 7.86825C9.75226 7.91534 9.75106 7.95116 9.7505 7.97382L9.75004 7.9976L9.75 8.0005Z" fill="#050505"/>
<rect x="13" width="16" height="15" rx="7.5" fill="#1E2DA0"/>
<path d="M16.3538 9.139V7.823H15.0448V7.13H16.3538V5.814H17.0678V7.13H18.3698V7.823H17.0678V9.139H16.3538ZM20.6793 10.063C19.6993 10.063 19.0763 9.524 18.9923 8.712H19.8463C19.9023 9.076 20.2243 9.3 20.6863 9.3C21.4703 9.3 21.7083 8.649 21.7013 7.592H21.6593C21.4913 7.998 21.0643 8.271 20.4693 8.271C19.5383 8.271 18.9083 7.606 18.9083 6.612C18.9083 5.527 19.6433 4.89 20.7073 4.89C21.9113 4.89 22.5833 5.695 22.5833 7.326C22.5833 9.265 21.8973 10.063 20.6793 10.063ZM20.6863 7.606C21.2603 7.606 21.6103 7.193 21.6103 6.612C21.6103 6.024 21.2463 5.653 20.6863 5.653C20.1403 5.653 19.7833 6.038 19.7833 6.64C19.7833 7.242 20.1403 7.606 20.6863 7.606ZM24.9722 10.063C23.9922 10.063 23.3692 9.524 23.2852 8.712H24.1392C24.1952 9.076 24.5172 9.3 24.9792 9.3C25.7632 9.3 26.0012 8.649 25.9942 7.592H25.9522C25.7842 7.998 25.3572 8.271 24.7622 8.271C23.8312 8.271 23.2012 7.606 23.2012 6.612C23.2012 5.527 23.9362 4.89 25.0002 4.89C26.2042 4.89 26.8762 5.695 26.8762 7.326C26.8762 9.265 26.1902 10.063 24.9722 10.063ZM24.9792 7.606C25.5532 7.606 25.9032 7.193 25.9032 6.612C25.9032 6.024 25.5392 5.653 24.9792 5.653C24.4332 5.653 24.0762 6.038 24.0762 6.64C24.0762 7.242 24.4332 7.606 24.9792 7.606Z" fill="#FDFDFD"/>
</svg>
