<svg width="34" height="24" viewBox="0 0 34 24" fill="none" xmlns="http://www.w3.org/2000/svg">
<path d="M22.594 7.66968H20.1052C19.9353 7.66968 19.7905 7.79339 19.7639 7.96149L18.7575 14.3425C18.7375 14.4684 18.835 14.5819 18.962 14.5819H20.2391C20.3577 14.5819 20.4593 14.4953 20.4778 14.3774L20.7634 12.5687C20.7896 12.4002 20.9348 12.2765 21.1047 12.2765H21.8921C23.5317 12.2765 24.4773 11.4833 24.7248 9.91141C24.8365 9.22371 24.7291 8.68339 24.4071 8.30497C24.0538 7.88945 23.4269 7.66968 22.594 7.66968ZM22.8811 10.0002C22.7454 10.8931 22.0631 10.8931 21.4031 10.8931H21.028L21.2918 9.22553C21.3074 9.12475 21.394 9.05052 21.4963 9.05052H21.6684C22.1174 9.05052 22.5416 9.05052 22.7607 9.30667C22.8913 9.4595 22.9309 9.68654 22.8811 10.0002Z" fill="#179BD7"/>
<path d="M30.0332 9.97572H28.8422C28.74 9.97572 28.653 10.0499 28.6378 10.1507L28.585 10.484L28.5013 10.3632C28.2433 9.98881 27.6684 9.86365 27.0943 9.86365C25.7775 9.86365 24.6531 10.861 24.4341 12.26C24.3206 12.9579 24.4818 13.6252 24.8776 14.0906C25.2415 14.5185 25.7604 14.6968 26.3786 14.6968C27.4396 14.6968 28.0279 14.0145 28.0279 14.0145L27.9748 14.3456C27.9548 14.4723 28.0523 14.5858 28.18 14.5858H29.253C29.423 14.5858 29.5678 14.4621 29.5943 14.2936L30.2387 10.2151C30.2584 10.0896 30.1609 9.97572 30.0332 9.97572ZM28.3721 12.2949C28.2579 12.9757 27.7168 13.4327 27.0277 13.4327C26.6824 13.4327 26.4051 13.3218 26.2276 13.1114C26.0515 12.9026 25.9852 12.6053 26.0405 12.2742C26.1486 11.5992 26.6973 11.1273 27.3759 11.1273C27.7143 11.1273 27.9894 11.2398 28.1706 11.4519C28.3529 11.6662 28.4249 11.9653 28.3721 12.2949Z" fill="#179BD7"/>
<path d="M31.4389 7.84506L30.4175 14.3428C30.3975 14.4687 30.495 14.5823 30.622 14.5823H31.6488C31.8195 14.5823 31.9643 14.4585 31.9905 14.2901L32.9976 7.90946C33.0177 7.78357 32.9201 7.66968 32.7932 7.66968H31.6434C31.5419 7.67004 31.4545 7.74427 31.4389 7.84506Z" fill="#179BD7"/>
<path d="M4.84499 7.66968H2.35657C2.18628 7.66968 2.04146 7.79339 2.0149 7.96149L1.00847 14.3425C0.98846 14.4684 1.08597 14.5819 1.21369 14.5819H2.40168C2.57197 14.5819 2.71679 14.4582 2.74335 14.2897L3.01478 12.5687C3.04098 12.4002 3.18616 12.2765 3.35608 12.2765H4.14384C5.78302 12.2765 6.72905 11.4833 6.97611 9.91141C7.08745 9.22371 6.98084 8.68339 6.65882 8.30497C6.30515 7.88945 5.67786 7.66968 4.84499 7.66968ZM5.13207 10.0002C4.99599 10.8931 4.31376 10.8931 3.65408 10.8931H3.27858L3.54202 9.22553C3.55766 9.12475 3.64499 9.05052 3.74687 9.05052H3.91897C4.36834 9.05052 4.79223 9.05052 5.01127 9.30667C5.1419 9.4595 5.18192 9.68654 5.13207 10.0002Z" fill="#253B80"/>
<path d="M12.2835 9.97572H11.0919C10.9904 9.97572 10.9027 10.0499 10.8871 10.1507L10.8343 10.484L10.751 10.3632C10.493 9.98881 9.91775 9.86365 9.34358 9.86365C8.02678 9.86365 6.90209 10.861 6.68305 12.26C6.56916 12.9579 6.73108 13.6252 7.12695 14.0906C7.49008 14.5185 8.00967 14.6968 8.62787 14.6968C9.68888 14.6968 10.2772 14.0145 10.2772 14.0145L10.2241 14.3456C10.2041 14.4723 10.3016 14.5858 10.4286 14.5858H11.502C11.6726 14.5858 11.8167 14.4621 11.8436 14.2936L12.4877 10.2151C12.508 10.0896 12.4109 9.97572 12.2835 9.97572ZM10.6225 12.2949C10.5076 12.9757 9.96723 13.4327 9.27808 13.4327C8.93205 13.4327 8.65552 13.3218 8.47796 13.1114C8.30185 12.9026 8.2349 12.6053 8.29094 12.2742C8.39827 11.5992 8.9477 11.1273 9.6263 11.1273C9.96468 11.1273 10.2398 11.2398 10.421 11.4519C10.6025 11.6662 10.6746 11.9653 10.6225 12.2949Z" fill="#253B80"/>
<path d="M18.6287 9.96948H17.4312C17.317 9.96948 17.2096 10.0262 17.1449 10.1212L15.4933 12.554L14.7933 10.2162C14.7492 10.0699 14.6142 9.96948 14.4614 9.96948H13.2847C13.1417 9.96948 13.0424 10.1092 13.0879 10.2438L14.4068 14.1146L13.1668 15.8651C13.0693 16.003 13.1676 16.1925 13.336 16.1925H14.532C14.6455 16.1925 14.7518 16.1372 14.8162 16.0441L18.799 10.2951C18.8943 10.1576 18.7964 9.96948 18.6287 9.96948Z" fill="#253B80"/>
</svg>
